<mxfile host="app.diagrams.net" modified="2024-05-08T11:11:57.101Z" agent="Mozilla/5.0 (Windows NT 10.0; Win64; x64) AppleWebKit/537.36 (KHTML, like Gecko) Chrome/124.0.0.0 Safari/537.36" etag="6xaSv0xn3gNVhm0U3QBx" version="24.3.1" type="device">
  <diagram name="Page-1" id="3TGUr_4GOtjGBml6n3Gv">
    <mxGraphModel dx="1860" dy="1989" grid="1" gridSize="10" guides="1" tooltips="1" connect="1" arrows="1" fold="1" page="1" pageScale="1" pageWidth="827" pageHeight="1169" math="0" shadow="0">
      <root>
        <mxCell id="0" />
        <mxCell id="1" parent="0" />
        <mxCell id="WeAncrxXl6ypk1Owdeq1-5" value="" style="edgeStyle=orthogonalEdgeStyle;rounded=0;orthogonalLoop=1;jettySize=auto;html=1;" edge="1" parent="1" source="3pDLLmqGOba7lDV-xMb6-1" target="WeAncrxXl6ypk1Owdeq1-3">
          <mxGeometry relative="1" as="geometry" />
        </mxCell>
        <mxCell id="3pDLLmqGOba7lDV-xMb6-1" value="start&amp;nbsp;" style="ellipse;whiteSpace=wrap;html=1;" parent="1" vertex="1">
          <mxGeometry x="670" y="-50" width="80" height="30" as="geometry" />
        </mxCell>
        <mxCell id="3pDLLmqGOba7lDV-xMb6-15" value="" style="edgeStyle=orthogonalEdgeStyle;rounded=0;orthogonalLoop=1;jettySize=auto;html=1;" parent="1" source="3pDLLmqGOba7lDV-xMb6-12" target="3pDLLmqGOba7lDV-xMb6-14" edge="1">
          <mxGeometry relative="1" as="geometry" />
        </mxCell>
        <mxCell id="3pDLLmqGOba7lDV-xMb6-12" value="initialize the board&lt;div&gt;and load the cnn model&lt;/div&gt;" style="whiteSpace=wrap;html=1;" parent="1" vertex="1">
          <mxGeometry x="637.5" y="90" width="145" height="70" as="geometry" />
        </mxCell>
        <mxCell id="3pDLLmqGOba7lDV-xMb6-17" value="" style="edgeStyle=orthogonalEdgeStyle;rounded=0;orthogonalLoop=1;jettySize=auto;html=1;" parent="1" source="3pDLLmqGOba7lDV-xMb6-14" target="3pDLLmqGOba7lDV-xMb6-16" edge="1">
          <mxGeometry relative="1" as="geometry" />
        </mxCell>
        <mxCell id="3pDLLmqGOba7lDV-xMb6-18" value="NO" style="edgeLabel;html=1;align=center;verticalAlign=middle;resizable=0;points=[];" parent="3pDLLmqGOba7lDV-xMb6-17" vertex="1" connectable="0">
          <mxGeometry x="-0.2549" y="-3" relative="1" as="geometry">
            <mxPoint x="4" as="offset" />
          </mxGeometry>
        </mxCell>
        <mxCell id="3pDLLmqGOba7lDV-xMb6-26" value="" style="edgeStyle=orthogonalEdgeStyle;rounded=0;orthogonalLoop=1;jettySize=auto;html=1;" parent="1" source="3pDLLmqGOba7lDV-xMb6-14" target="3pDLLmqGOba7lDV-xMb6-25" edge="1">
          <mxGeometry relative="1" as="geometry" />
        </mxCell>
        <mxCell id="3pDLLmqGOba7lDV-xMb6-27" value="YES" style="edgeLabel;html=1;align=center;verticalAlign=middle;resizable=0;points=[];" parent="3pDLLmqGOba7lDV-xMb6-26" vertex="1" connectable="0">
          <mxGeometry x="-0.2277" y="3" relative="1" as="geometry">
            <mxPoint y="1" as="offset" />
          </mxGeometry>
        </mxCell>
        <mxCell id="3pDLLmqGOba7lDV-xMb6-14" value="AI turn?" style="rhombus;whiteSpace=wrap;html=1;" parent="1" vertex="1">
          <mxGeometry x="675" y="190" width="70" height="75" as="geometry" />
        </mxCell>
        <mxCell id="WeAncrxXl6ypk1Owdeq1-2" style="edgeStyle=orthogonalEdgeStyle;rounded=0;orthogonalLoop=1;jettySize=auto;html=1;entryX=0.5;entryY=0;entryDx=0;entryDy=0;" edge="1" parent="1" source="3pDLLmqGOba7lDV-xMb6-16" target="3pDLLmqGOba7lDV-xMb6-66">
          <mxGeometry relative="1" as="geometry" />
        </mxCell>
        <mxCell id="3pDLLmqGOba7lDV-xMb6-16" value="do a move" style="shape=parallelogram;perimeter=parallelogramPerimeter;whiteSpace=wrap;html=1;fixedSize=1;" parent="1" vertex="1">
          <mxGeometry x="660" y="318.75" width="100" height="32.5" as="geometry" />
        </mxCell>
        <mxCell id="3pDLLmqGOba7lDV-xMb6-22" value="" style="edgeStyle=orthogonalEdgeStyle;rounded=0;orthogonalLoop=1;jettySize=auto;html=1;" parent="1" source="3pDLLmqGOba7lDV-xMb6-19" target="3pDLLmqGOba7lDV-xMb6-21" edge="1">
          <mxGeometry relative="1" as="geometry" />
        </mxCell>
        <mxCell id="3pDLLmqGOba7lDV-xMb6-19" value="processing the move" style="whiteSpace=wrap;html=1;" parent="1" vertex="1">
          <mxGeometry x="660" y="400" width="100" height="50" as="geometry" />
        </mxCell>
        <mxCell id="3pDLLmqGOba7lDV-xMb6-23" style="edgeStyle=orthogonalEdgeStyle;rounded=0;orthogonalLoop=1;jettySize=auto;html=1;entryX=0;entryY=0.5;entryDx=0;entryDy=0;" parent="1" source="3pDLLmqGOba7lDV-xMb6-21" target="3pDLLmqGOba7lDV-xMb6-14" edge="1">
          <mxGeometry relative="1" as="geometry">
            <mxPoint x="560" y="220" as="targetPoint" />
            <Array as="points">
              <mxPoint x="610" y="503" />
              <mxPoint x="610" y="228" />
            </Array>
          </mxGeometry>
        </mxCell>
        <mxCell id="3pDLLmqGOba7lDV-xMb6-24" value="NO" style="edgeLabel;html=1;align=center;verticalAlign=middle;resizable=0;points=[];" parent="3pDLLmqGOba7lDV-xMb6-23" vertex="1" connectable="0">
          <mxGeometry x="0.2264" y="1" relative="1" as="geometry">
            <mxPoint as="offset" />
          </mxGeometry>
        </mxCell>
        <mxCell id="3pDLLmqGOba7lDV-xMb6-71" value="" style="edgeStyle=orthogonalEdgeStyle;rounded=0;orthogonalLoop=1;jettySize=auto;html=1;" parent="1" source="3pDLLmqGOba7lDV-xMb6-21" target="3pDLLmqGOba7lDV-xMb6-70" edge="1">
          <mxGeometry relative="1" as="geometry" />
        </mxCell>
        <mxCell id="3pDLLmqGOba7lDV-xMb6-105" value="YES" style="edgeLabel;html=1;align=center;verticalAlign=middle;resizable=0;points=[];" parent="3pDLLmqGOba7lDV-xMb6-71" vertex="1" connectable="0">
          <mxGeometry x="-0.3284" y="-1" relative="1" as="geometry">
            <mxPoint as="offset" />
          </mxGeometry>
        </mxCell>
        <mxCell id="3pDLLmqGOba7lDV-xMb6-21" value="checkmate?" style="rhombus;whiteSpace=wrap;html=1;" parent="1" vertex="1">
          <mxGeometry x="670" y="470" width="80" height="65" as="geometry" />
        </mxCell>
        <mxCell id="3pDLLmqGOba7lDV-xMb6-29" value="" style="edgeStyle=orthogonalEdgeStyle;rounded=0;orthogonalLoop=1;jettySize=auto;html=1;" parent="1" source="3pDLLmqGOba7lDV-xMb6-25" target="3pDLLmqGOba7lDV-xMb6-28" edge="1">
          <mxGeometry relative="1" as="geometry" />
        </mxCell>
        <mxCell id="3pDLLmqGOba7lDV-xMb6-25" value="run the AI agent" style="whiteSpace=wrap;html=1;" parent="1" vertex="1">
          <mxGeometry x="820" y="206.25" width="100" height="42.5" as="geometry" />
        </mxCell>
        <mxCell id="3pDLLmqGOba7lDV-xMb6-30" style="edgeStyle=orthogonalEdgeStyle;rounded=0;orthogonalLoop=1;jettySize=auto;html=1;exitX=0.5;exitY=1;exitDx=0;exitDy=0;" parent="1" source="3pDLLmqGOba7lDV-xMb6-28" edge="1">
          <mxGeometry relative="1" as="geometry">
            <mxPoint x="1010" y="254" as="targetPoint" />
          </mxGeometry>
        </mxCell>
        <mxCell id="3pDLLmqGOba7lDV-xMb6-32" value="" style="edgeStyle=orthogonalEdgeStyle;rounded=0;orthogonalLoop=1;jettySize=auto;html=1;" parent="1" source="3pDLLmqGOba7lDV-xMb6-28" target="3pDLLmqGOba7lDV-xMb6-31" edge="1">
          <mxGeometry relative="1" as="geometry" />
        </mxCell>
        <mxCell id="3pDLLmqGOba7lDV-xMb6-34" value="YES" style="edgeLabel;html=1;align=center;verticalAlign=middle;resizable=0;points=[];" parent="3pDLLmqGOba7lDV-xMb6-32" vertex="1" connectable="0">
          <mxGeometry x="-0.1474" y="-2" relative="1" as="geometry">
            <mxPoint as="offset" />
          </mxGeometry>
        </mxCell>
        <mxCell id="WeAncrxXl6ypk1Owdeq1-25" style="edgeStyle=orthogonalEdgeStyle;rounded=0;orthogonalLoop=1;jettySize=auto;html=1;entryX=0;entryY=0.5;entryDx=0;entryDy=0;" edge="1" parent="1" source="3pDLLmqGOba7lDV-xMb6-28" target="WeAncrxXl6ypk1Owdeq1-20">
          <mxGeometry relative="1" as="geometry">
            <Array as="points">
              <mxPoint x="1010" y="155" />
            </Array>
          </mxGeometry>
        </mxCell>
        <mxCell id="WeAncrxXl6ypk1Owdeq1-26" value="NO" style="edgeLabel;html=1;align=center;verticalAlign=middle;resizable=0;points=[];" vertex="1" connectable="0" parent="WeAncrxXl6ypk1Owdeq1-25">
          <mxGeometry x="0.2331" y="1" relative="1" as="geometry">
            <mxPoint y="-1" as="offset" />
          </mxGeometry>
        </mxCell>
        <mxCell id="3pDLLmqGOba7lDV-xMb6-28" value="oppening ?" style="rhombus;whiteSpace=wrap;html=1;" parent="1" vertex="1">
          <mxGeometry x="970" y="201.25" width="80" height="52.5" as="geometry" />
        </mxCell>
        <mxCell id="WeAncrxXl6ypk1Owdeq1-1" style="edgeStyle=orthogonalEdgeStyle;rounded=0;orthogonalLoop=1;jettySize=auto;html=1;entryX=1;entryY=0.5;entryDx=0;entryDy=0;" edge="1" parent="1" source="3pDLLmqGOba7lDV-xMb6-31" target="3pDLLmqGOba7lDV-xMb6-66">
          <mxGeometry relative="1" as="geometry">
            <Array as="points">
              <mxPoint x="1010" y="424" />
            </Array>
          </mxGeometry>
        </mxCell>
        <mxCell id="3pDLLmqGOba7lDV-xMb6-31" value="do appropriate&lt;div&gt;&amp;nbsp;move from stored oppenings&lt;/div&gt;" style="whiteSpace=wrap;html=1;" parent="1" vertex="1">
          <mxGeometry x="950" y="398" width="120" height="50" as="geometry" />
        </mxCell>
        <mxCell id="3pDLLmqGOba7lDV-xMb6-41" value="" style="edgeStyle=orthogonalEdgeStyle;rounded=0;orthogonalLoop=1;jettySize=auto;html=1;" parent="1" source="3pDLLmqGOba7lDV-xMb6-35" target="3pDLLmqGOba7lDV-xMb6-40" edge="1">
          <mxGeometry relative="1" as="geometry" />
        </mxCell>
        <mxCell id="3pDLLmqGOba7lDV-xMb6-35" value="select&amp;nbsp;&amp;nbsp;&lt;div&gt;current node&lt;/div&gt;" style="whiteSpace=wrap;html=1;" parent="1" vertex="1">
          <mxGeometry x="1120" y="203.13" width="100" height="48.75" as="geometry" />
        </mxCell>
        <mxCell id="3pDLLmqGOba7lDV-xMb6-46" value="" style="edgeStyle=orthogonalEdgeStyle;rounded=0;orthogonalLoop=1;jettySize=auto;html=1;" parent="1" source="3pDLLmqGOba7lDV-xMb6-40" target="3pDLLmqGOba7lDV-xMb6-45" edge="1">
          <mxGeometry relative="1" as="geometry" />
        </mxCell>
        <mxCell id="3pDLLmqGOba7lDV-xMb6-48" value="NO" style="edgeLabel;html=1;align=center;verticalAlign=middle;resizable=0;points=[];" parent="3pDLLmqGOba7lDV-xMb6-46" vertex="1" connectable="0">
          <mxGeometry x="-0.1608" relative="1" as="geometry">
            <mxPoint as="offset" />
          </mxGeometry>
        </mxCell>
        <mxCell id="WeAncrxXl6ypk1Owdeq1-17" value="" style="edgeStyle=orthogonalEdgeStyle;rounded=0;orthogonalLoop=1;jettySize=auto;html=1;" edge="1" parent="1" source="3pDLLmqGOba7lDV-xMb6-40" target="WeAncrxXl6ypk1Owdeq1-13">
          <mxGeometry relative="1" as="geometry" />
        </mxCell>
        <mxCell id="WeAncrxXl6ypk1Owdeq1-18" value="YES" style="edgeLabel;html=1;align=center;verticalAlign=middle;resizable=0;points=[];" vertex="1" connectable="0" parent="WeAncrxXl6ypk1Owdeq1-17">
          <mxGeometry x="-0.1897" y="-2" relative="1" as="geometry">
            <mxPoint as="offset" />
          </mxGeometry>
        </mxCell>
        <mxCell id="3pDLLmqGOba7lDV-xMb6-40" value="fully&amp;nbsp;&lt;div&gt;expaned?&lt;/div&gt;" style="rhombus;whiteSpace=wrap;html=1;" parent="1" vertex="1">
          <mxGeometry x="1130" y="280.62" width="80" height="70.63" as="geometry" />
        </mxCell>
        <mxCell id="3pDLLmqGOba7lDV-xMb6-58" value="" style="edgeStyle=orthogonalEdgeStyle;rounded=0;orthogonalLoop=1;jettySize=auto;html=1;" parent="1" source="3pDLLmqGOba7lDV-xMb6-42" target="3pDLLmqGOba7lDV-xMb6-57" edge="1">
          <mxGeometry relative="1" as="geometry" />
        </mxCell>
        <mxCell id="3pDLLmqGOba7lDV-xMb6-42" value="simulate" style="whiteSpace=wrap;html=1;" parent="1" vertex="1">
          <mxGeometry x="1125" y="470" width="90" height="33.44" as="geometry" />
        </mxCell>
        <mxCell id="WeAncrxXl6ypk1Owdeq1-9" value="" style="edgeStyle=orthogonalEdgeStyle;rounded=0;orthogonalLoop=1;jettySize=auto;html=1;" edge="1" parent="1" source="3pDLLmqGOba7lDV-xMb6-45" target="3pDLLmqGOba7lDV-xMb6-49">
          <mxGeometry relative="1" as="geometry" />
        </mxCell>
        <mxCell id="3pDLLmqGOba7lDV-xMb6-45" value="expand" style="whiteSpace=wrap;html=1;" parent="1" vertex="1">
          <mxGeometry x="1290" y="298.83" width="100" height="34.07" as="geometry" />
        </mxCell>
        <mxCell id="WeAncrxXl6ypk1Owdeq1-19" value="" style="edgeStyle=orthogonalEdgeStyle;rounded=0;orthogonalLoop=1;jettySize=auto;html=1;" edge="1" parent="1" source="3pDLLmqGOba7lDV-xMb6-49" target="WeAncrxXl6ypk1Owdeq1-13">
          <mxGeometry relative="1" as="geometry" />
        </mxCell>
        <mxCell id="3pDLLmqGOba7lDV-xMb6-49" value="CNN&amp;nbsp;" style="rounded=0;whiteSpace=wrap;html=1;" parent="1" vertex="1">
          <mxGeometry x="1290" y="397.99999999999994" width="100" height="34" as="geometry" />
        </mxCell>
        <mxCell id="3pDLLmqGOba7lDV-xMb6-60" value="" style="edgeStyle=orthogonalEdgeStyle;rounded=0;orthogonalLoop=1;jettySize=auto;html=1;" parent="1" source="3pDLLmqGOba7lDV-xMb6-57" target="3pDLLmqGOba7lDV-xMb6-59" edge="1">
          <mxGeometry relative="1" as="geometry" />
        </mxCell>
        <mxCell id="3pDLLmqGOba7lDV-xMb6-57" value="backpropagate" style="whiteSpace=wrap;html=1;" parent="1" vertex="1">
          <mxGeometry x="1120" y="535" width="100" height="41.56" as="geometry" />
        </mxCell>
        <mxCell id="3pDLLmqGOba7lDV-xMb6-64" value="" style="edgeStyle=orthogonalEdgeStyle;rounded=0;orthogonalLoop=1;jettySize=auto;html=1;" parent="1" source="3pDLLmqGOba7lDV-xMb6-59" target="3pDLLmqGOba7lDV-xMb6-63" edge="1">
          <mxGeometry relative="1" as="geometry" />
        </mxCell>
        <mxCell id="3pDLLmqGOba7lDV-xMb6-65" value="YES" style="edgeLabel;html=1;align=center;verticalAlign=middle;resizable=0;points=[];" parent="3pDLLmqGOba7lDV-xMb6-64" vertex="1" connectable="0">
          <mxGeometry x="-0.1728" y="-2" relative="1" as="geometry">
            <mxPoint as="offset" />
          </mxGeometry>
        </mxCell>
        <mxCell id="WeAncrxXl6ypk1Owdeq1-23" style="edgeStyle=orthogonalEdgeStyle;rounded=0;orthogonalLoop=1;jettySize=auto;html=1;entryX=1;entryY=0.5;entryDx=0;entryDy=0;" edge="1" parent="1" source="3pDLLmqGOba7lDV-xMb6-59" target="WeAncrxXl6ypk1Owdeq1-20">
          <mxGeometry relative="1" as="geometry">
            <Array as="points">
              <mxPoint x="1420" y="656" />
              <mxPoint x="1420" y="155" />
            </Array>
          </mxGeometry>
        </mxCell>
        <mxCell id="WeAncrxXl6ypk1Owdeq1-24" value="NO" style="edgeLabel;html=1;align=center;verticalAlign=middle;resizable=0;points=[];" vertex="1" connectable="0" parent="WeAncrxXl6ypk1Owdeq1-23">
          <mxGeometry x="-0.7928" relative="1" as="geometry">
            <mxPoint as="offset" />
          </mxGeometry>
        </mxCell>
        <mxCell id="3pDLLmqGOba7lDV-xMb6-59" value="finished&amp;nbsp;&lt;div&gt;iterations?&lt;/div&gt;" style="rhombus;whiteSpace=wrap;html=1;" parent="1" vertex="1">
          <mxGeometry x="1125" y="613.28" width="90" height="85.94" as="geometry" />
        </mxCell>
        <mxCell id="3pDLLmqGOba7lDV-xMb6-68" style="edgeStyle=orthogonalEdgeStyle;rounded=0;orthogonalLoop=1;jettySize=auto;html=1;entryX=0.5;entryY=1;entryDx=0;entryDy=0;" parent="1" source="3pDLLmqGOba7lDV-xMb6-63" target="3pDLLmqGOba7lDV-xMb6-66" edge="1">
          <mxGeometry relative="1" as="geometry" />
        </mxCell>
        <mxCell id="3pDLLmqGOba7lDV-xMb6-63" value="producing&amp;nbsp;&lt;div&gt;best move&lt;/div&gt;" style="whiteSpace=wrap;html=1;" parent="1" vertex="1">
          <mxGeometry x="892.53" y="632.73" width="100" height="47.03" as="geometry" />
        </mxCell>
        <mxCell id="3pDLLmqGOba7lDV-xMb6-67" value="" style="edgeStyle=orthogonalEdgeStyle;rounded=0;orthogonalLoop=1;jettySize=auto;html=1;" parent="1" source="3pDLLmqGOba7lDV-xMb6-66" target="3pDLLmqGOba7lDV-xMb6-19" edge="1">
          <mxGeometry relative="1" as="geometry" />
        </mxCell>
        <mxCell id="3pDLLmqGOba7lDV-xMb6-66" value="" style="ellipse;whiteSpace=wrap;html=1;aspect=fixed;" parent="1" vertex="1">
          <mxGeometry x="810" y="408.28" width="31.72" height="31.72" as="geometry" />
        </mxCell>
        <mxCell id="3pDLLmqGOba7lDV-xMb6-73" value="" style="edgeStyle=orthogonalEdgeStyle;rounded=0;orthogonalLoop=1;jettySize=auto;html=1;" parent="1" source="3pDLLmqGOba7lDV-xMb6-70" target="3pDLLmqGOba7lDV-xMb6-72" edge="1">
          <mxGeometry relative="1" as="geometry" />
        </mxCell>
        <mxCell id="3pDLLmqGOba7lDV-xMb6-70" value="process score&amp;nbsp;&lt;div&gt;and time&lt;/div&gt;" style="whiteSpace=wrap;html=1;" parent="1" vertex="1">
          <mxGeometry x="655" y="573.33" width="110" height="42.5" as="geometry" />
        </mxCell>
        <mxCell id="3pDLLmqGOba7lDV-xMb6-81" value="" style="edgeStyle=orthogonalEdgeStyle;rounded=0;orthogonalLoop=1;jettySize=auto;html=1;entryX=0.529;entryY=0;entryDx=0;entryDy=0;entryPerimeter=0;" parent="1" source="3pDLLmqGOba7lDV-xMb6-72" target="3pDLLmqGOba7lDV-xMb6-83" edge="1">
          <mxGeometry relative="1" as="geometry">
            <mxPoint x="705" y="760" as="targetPoint" />
          </mxGeometry>
        </mxCell>
        <mxCell id="3pDLLmqGOba7lDV-xMb6-82" value="YES" style="edgeLabel;html=1;align=center;verticalAlign=middle;resizable=0;points=[];" parent="3pDLLmqGOba7lDV-xMb6-81" vertex="1" connectable="0">
          <mxGeometry x="-0.1118" y="1" relative="1" as="geometry">
            <mxPoint as="offset" />
          </mxGeometry>
        </mxCell>
        <mxCell id="WeAncrxXl6ypk1Owdeq1-7" style="edgeStyle=orthogonalEdgeStyle;rounded=0;orthogonalLoop=1;jettySize=auto;html=1;entryX=0;entryY=0.5;entryDx=0;entryDy=0;" edge="1" parent="1" source="3pDLLmqGOba7lDV-xMb6-72" target="WeAncrxXl6ypk1Owdeq1-3">
          <mxGeometry relative="1" as="geometry">
            <Array as="points">
              <mxPoint x="560" y="678" />
              <mxPoint x="560" y="38" />
            </Array>
          </mxGeometry>
        </mxCell>
        <mxCell id="WeAncrxXl6ypk1Owdeq1-8" value="NO" style="edgeLabel;html=1;align=center;verticalAlign=middle;resizable=0;points=[];" vertex="1" connectable="0" parent="WeAncrxXl6ypk1Owdeq1-7">
          <mxGeometry x="-0.8405" y="1" relative="1" as="geometry">
            <mxPoint x="20" y="-1" as="offset" />
          </mxGeometry>
        </mxCell>
        <mxCell id="3pDLLmqGOba7lDV-xMb6-72" value="time&#39;s&lt;div&gt;out?&lt;/div&gt;" style="rhombus;whiteSpace=wrap;html=1;" parent="1" vertex="1">
          <mxGeometry x="670" y="645.94" width="80" height="63.25" as="geometry" />
        </mxCell>
        <mxCell id="3pDLLmqGOba7lDV-xMb6-83" value="end" style="ellipse;whiteSpace=wrap;html=1;" parent="1" vertex="1">
          <mxGeometry x="665" y="770" width="85" height="35" as="geometry" />
        </mxCell>
        <mxCell id="WeAncrxXl6ypk1Owdeq1-4" value="" style="edgeStyle=orthogonalEdgeStyle;rounded=0;orthogonalLoop=1;jettySize=auto;html=1;" edge="1" parent="1" source="WeAncrxXl6ypk1Owdeq1-3" target="3pDLLmqGOba7lDV-xMb6-12">
          <mxGeometry relative="1" as="geometry" />
        </mxCell>
        <mxCell id="WeAncrxXl6ypk1Owdeq1-3" value="" style="ellipse;whiteSpace=wrap;html=1;aspect=fixed;" vertex="1" parent="1">
          <mxGeometry x="692.5" y="20" width="35" height="35" as="geometry" />
        </mxCell>
        <mxCell id="WeAncrxXl6ypk1Owdeq1-15" style="edgeStyle=orthogonalEdgeStyle;rounded=0;orthogonalLoop=1;jettySize=auto;html=1;entryX=0.5;entryY=0;entryDx=0;entryDy=0;" edge="1" parent="1" source="WeAncrxXl6ypk1Owdeq1-13" target="3pDLLmqGOba7lDV-xMb6-42">
          <mxGeometry relative="1" as="geometry" />
        </mxCell>
        <mxCell id="WeAncrxXl6ypk1Owdeq1-13" value="" style="ellipse;whiteSpace=wrap;html=1;aspect=fixed;" vertex="1" parent="1">
          <mxGeometry x="1155" y="400" width="30" height="30" as="geometry" />
        </mxCell>
        <mxCell id="WeAncrxXl6ypk1Owdeq1-22" style="edgeStyle=orthogonalEdgeStyle;rounded=0;orthogonalLoop=1;jettySize=auto;html=1;entryX=0.5;entryY=0;entryDx=0;entryDy=0;" edge="1" parent="1" source="WeAncrxXl6ypk1Owdeq1-20" target="3pDLLmqGOba7lDV-xMb6-35">
          <mxGeometry relative="1" as="geometry" />
        </mxCell>
        <mxCell id="WeAncrxXl6ypk1Owdeq1-20" value="" style="ellipse;whiteSpace=wrap;html=1;aspect=fixed;" vertex="1" parent="1">
          <mxGeometry x="1155" y="140" width="30" height="30" as="geometry" />
        </mxCell>
      </root>
    </mxGraphModel>
  </diagram>
</mxfile>
